<svg xmlns="http://www.w3.org/2000/svg" width="32" height="32" viewBox="0 0 32 32" fill="none">
    <path d="M22.3641 0.016014C22.2961 -0.059986 19.8461 0.0460141 17.7141 2.36001C15.5821 4.67201 15.9101 7.32401 15.9581 7.39201C16.0061 7.46001 18.9981 7.56601 20.9081 4.87601C22.8181 2.18601 22.4321 0.094014 22.3641 0.016014ZM28.9921 23.482C28.8961 23.29 24.3421 21.014 24.7661 16.638C25.1901 12.26 28.1161 11.06 28.1621 10.93C28.2081 10.8 26.9681 9.35001 25.6541 8.61601C24.6893 8.09852 23.6216 7.80203 22.5281 7.74801C22.3121 7.74201 21.5621 7.55801 20.0201 7.98001C19.0041 8.25801 16.7141 9.15801 16.0841 9.19401C15.4521 9.23001 13.5721 8.15001 11.5501 7.86401C10.2561 7.61401 8.8841 8.12601 7.9021 8.52001C6.9221 8.91201 5.0581 10.028 3.7541 12.994C2.4501 15.958 3.1321 20.654 3.6201 22.114C4.1081 23.572 4.8701 25.962 6.1661 27.706C7.3181 29.674 8.8461 31.04 9.4841 31.504C10.1221 31.968 11.9221 32.276 13.1701 31.638C14.1741 31.022 15.9861 30.668 16.7021 30.694C17.4161 30.72 18.8241 31.002 20.2661 31.772C21.4081 32.166 22.4881 32.002 23.5701 31.562C24.6521 31.12 26.2181 29.444 28.0461 26.046C28.7401 24.466 29.0561 23.612 28.9921 23.482Z" fill="black"/>
    <path d="M22.3641 0.016014C22.2961 -0.059986 19.8461 0.0460141 17.7141 2.36001C15.5821 4.67201 15.9101 7.32401 15.9581 7.39201C16.0061 7.46001 18.9981 7.56601 20.9081 4.87601C22.8181 2.18601 22.4321 0.094014 22.3641 0.016014ZM28.9921 23.482C28.8961 23.29 24.3421 21.014 24.7661 16.638C25.1901 12.26 28.1161 11.06 28.1621 10.93C28.2081 10.8 26.9681 9.35001 25.6541 8.61601C24.6893 8.09852 23.6216 7.80203 22.5281 7.74801C22.3121 7.74201 21.5621 7.55801 20.0201 7.98001C19.0041 8.25801 16.7141 9.15801 16.0841 9.19401C15.4521 9.23001 13.5721 8.15001 11.5501 7.86401C10.2561 7.61401 8.8841 8.12601 7.9021 8.52001C6.9221 8.91201 5.0581 10.028 3.7541 12.994C2.4501 15.958 3.1321 20.654 3.6201 22.114C4.1081 23.572 4.8701 25.962 6.1661 27.706C7.3181 29.674 8.8461 31.04 9.4841 31.504C10.1221 31.968 11.9221 32.276 13.1701 31.638C14.1741 31.022 15.9861 30.668 16.7021 30.694C17.4161 30.72 18.8241 31.002 20.2661 31.772C21.4081 32.166 22.4881 32.002 23.5701 31.562C24.6521 31.12 26.2181 29.444 28.0461 26.046C28.7401 24.466 29.0561 23.612 28.9921 23.482Z" fill="black"/>
</svg>