<svg xmlns="http://www.w3.org/2000/svg" width="16" height="17" viewBox="0 0 16 17" fill="none">
    <path d="M0 4.5C0 3.39543 0.895431 2.5 2 2.5H14C15.1046 2.5 16 3.39543 16 4.5V12.5C16 13.6046 15.1046 14.5 14 14.5H2C0.895431 14.5 0 13.6046 0 12.5V4.5ZM2 3.5C1.44772 3.5 1 3.94772 1 4.5V4.7169L8 8.9169L15 4.7169V4.5C15 3.94772 14.5523 3.5 14 3.5H2ZM15 5.8831L10.2919 8.70794L15 11.6052V5.8831ZM14.9662 12.7586L9.32583 9.2876L8 10.0831L6.67417 9.2876L1.03376 12.7586C1.14774 13.1855 1.53715 13.5 2 13.5H14C14.4628 13.5 14.8523 13.1855 14.9662 12.7586ZM1 11.6052L5.70808 8.70794L1 5.8831V11.6052Z" fill="#8692A6"/>
</svg>