<svg width="698" height="1024" viewBox="0 0 698 1024" fill="none" xmlns="http://www.w3.org/2000/svg">
    <path d="M157.531 512.001C157.531 213.519 399.519 -28.4688 698.001 -28.4688" stroke="white" stroke-width="1.53652" stroke-miterlimit="10"/>
    <path d="M698.001 1052.47C399.519 1052.47 157.531 810.482 157.531 511.999" stroke="white" stroke-width="6.14608" stroke-miterlimit="10"/>
    <path d="M157.531 512.001C157.531 213.519 399.519 -28.4688 698.001 -28.4688" stroke="white" stroke-width="1.53652" stroke-miterlimit="10"/>
    <path d="M698.001 1052.47C399.519 1052.47 157.531 810.482 157.531 511.999" stroke="white" stroke-width="6.14608" stroke-miterlimit="10"/>
    <path d="M107.627 512C107.627 185.95 371.95 -78.3732 698 -78.3732" stroke="white" stroke-width="1.53652" stroke-miterlimit="10"/>
    <path d="M698.001 1102.37C371.951 1102.37 107.627 838.049 107.627 511.999" stroke="white" stroke-width="6.14608" stroke-miterlimit="10"/>
    <path d="M107.627 512C107.627 185.95 371.95 -78.3732 698 -78.3732" stroke="white" stroke-width="1.53652" stroke-miterlimit="10"/>
    <path d="M698.001 1102.37C371.951 1102.37 107.627 838.049 107.627 511.999" stroke="white" stroke-width="6.14608" stroke-miterlimit="10"/>
    <path d="M57.9321 512C57.9321 158.488 344.488 -128.068 698 -128.068" stroke="white" stroke-width="1.53652" stroke-miterlimit="10"/>
    <path d="M698 1152.07C344.488 1152.07 57.9321 865.513 57.9321 512" stroke="white" stroke-width="6.14608" stroke-miterlimit="10"/>
    <path d="M4 512C4 128.723 314.723 -182 698 -182" stroke="white" stroke-width="1.53652" stroke-miterlimit="10"/>
    <path d="M698 1206C314.723 1206 4 895.277 4 512" stroke="white" stroke-width="6.14608" stroke-miterlimit="10"/>
</svg>