<svg xmlns="http://www.w3.org/2000/svg" width="16" height="17" viewBox="0 0 16 17" fill="none">
    <path d="M8 1.5C9.10457 1.5 10 2.39543 10 3.5V7.5H6V3.5C6 2.39543 6.89543 1.5 8 1.5ZM11 7.5V3.5C11 1.84315 9.65685 0.5 8 0.5C6.34315 0.5 5 1.84315 5 3.5V7.5C3.89543 7.5 3 8.39543 3 9.5V14.5C3 15.6046 3.89543 16.5 5 16.5H11C12.1046 16.5 13 15.6046 13 14.5V9.5C13 8.39543 12.1046 7.5 11 7.5ZM5 8.5H11C11.5523 8.5 12 8.94772 12 9.5V14.5C12 15.0523 11.5523 15.5 11 15.5H5C4.44772 15.5 4 15.0523 4 14.5V9.5C4 8.94772 4.44772 8.5 5 8.5Z" fill="#8692A6"/>
</svg>